<?xml version="1.0" standalone="no"?><!DOCTYPE svg PUBLIC "-//W3C//DTD SVG 1.1//EN" "http://www.w3.org/Graphics/SVG/1.1/DTD/svg11.dtd"><svg t="1600162853349" class="icon" viewBox="0 0 1024 1024" version="1.1" xmlns="http://www.w3.org/2000/svg" p-id="9718" width="32" height="32" xmlns:xlink="http://www.w3.org/1999/xlink"><defs><style type="text/css"></style></defs><path d="M170.666667 554.666667h682.666666a42.666667 42.666667 0 0 1 42.666667 42.666666v256a42.666667 42.666667 0 0 1-42.666667 42.666667H170.666667a42.666667 42.666667 0 0 1-42.666667-42.666667v-256a42.666667 42.666667 0 0 1 42.666667-42.666666z m42.666666 85.333333v170.666667h597.333334v-170.666667H213.333333z m85.333334 128a42.666667 42.666667 0 1 1 0-85.333333 42.666667 42.666667 0 0 1 0 85.333333zM213.333333 213.333333v256a42.666667 42.666667 0 0 1-85.333333 0V170.666667a42.666667 42.666667 0 0 1 42.666667-42.666667h256a42.666667 42.666667 0 0 1 42.666666 42.666667v42.666666a42.666667 42.666667 0 0 1-85.333333 0H213.333333z m384 102.997334l-183.168 183.168a42.666667 42.666667 0 1 1-60.330666-60.330667l213.333333-213.333333a42.666667 42.666667 0 0 1 60.330667 0l170.666666 170.666666a42.666667 42.666667 0 0 1 0 60.330667l-42.666666 42.666667a42.666667 42.666667 0 0 1-60.330667-60.330667l12.501333-12.501333L597.333333 316.330667z" p-id="9719"></path></svg>